<svg xmlns="http://www.w3.org/2000/svg"
    xmlns:xlink="http://www.w3.org/1999/xlink" version="1.1" x="0px" y="0px" style="enable-background:new 0 0 60 60;" xml:space="preserve" viewBox="2.51 1.08 54.99 58.05">
    <g>
        <g>
            <g>
                <path d="M33.726,59.125c-1.121,0-2.204-0.447-3.051-1.26c-1.352-1.298-1.749-2.985-1.092-4.629     c0.583-1.456,1.23-2.898,1.856-4.293c0.227-0.506,0.454-1.012,0.679-1.52c0.611-1.38,1.226-2.761,1.84-4.142l0.629-1.415     c-0.781-0.516-1.565-1.029-2.35-1.543c-2.167-1.42-4.408-2.887-6.579-4.396c-3.493-2.427-3.175-5.366-2.293-7.405     c0.38-0.877,0.835-1.719,1.355-2.501c1.52-2.293,3.06-4.575,4.599-6.857l1.04-1.542c-0.861-0.184-1.69-0.367-2.531-0.583     c-0.26-0.066-0.343-0.147-0.784,0.16c-2.304,1.608-4.615,3.15-6.787,4.591c-0.687,0.456-1.468,0.696-2.26,0.697     c-1.409,0-2.668-0.744-3.366-1.989c-0.916-1.638-0.541-3.679,0.891-4.855c0.386-0.316,0.783-0.582,1.168-0.839l2.479-1.667     c1.641-1.102,3.281-2.204,4.909-3.324c1.178-0.812,2.425-1.049,3.841-0.723c1.308,0.3,2.62,0.583,3.933,0.867     c1.472,0.318,2.942,0.635,4.408,0.976c0.686,0.16,1.39,0.47,2.153,0.949c0.626,0.392,1.237,0.808,1.848,1.225     c0.611,0.416,1.221,0.833,1.848,1.222c0.848,0.526,1.461,1.241,1.876,2.186c0.524,1.191,1.057,2.379,1.588,3.568     c0.484,1.082,0.969,2.164,1.447,3.248c2.324,0.263,4.628,0.553,6.932,0.846c1.135,0.144,2.113,0.682,2.755,1.515     c0.628,0.816,0.895,1.867,0.749,2.957c-0.283,2.111-2.168,3.537-4.478,3.261l-4.031-0.493c-1.629-0.2-3.258-0.4-4.888-0.597     c-1.563-0.187-2.733-1.079-3.386-2.579c-0.396-0.914-0.804-1.822-1.213-2.728l-3.904,6.255l6.788,4.656     c2.193,1.507,2.782,3.586,1.702,6.012l-1.138,2.556c-1.685,3.784-3.37,7.569-5.069,11.348     C37.066,58.057,35.489,59.125,33.726,59.125z M27.542,14.491c0.294,0,0.591,0.04,0.909,0.122     c0.956,0.246,1.919,0.451,2.939,0.667c0.426,0.091,0.857,0.183,1.295,0.279c0.4,0.088,0.733,0.367,0.89,0.746     s0.117,0.811-0.104,1.156l-0.156,0.246c-0.077,0.123-0.145,0.23-0.215,0.335l-1.703,2.526c-1.536,2.276-3.072,4.552-4.589,6.84     c-0.438,0.66-0.822,1.37-1.143,2.11c-0.795,1.837-0.382,3.098,1.423,4.351c2.143,1.489,4.369,2.948,6.522,4.358     c0.952,0.623,1.904,1.247,2.854,1.876c0.127,0.084,0.246,0.179,0.36,0.271l0.09,0.072c0.439,0.344,0.6,0.937,0.392,1.454     c-0.056,0.143-0.078,0.197-0.103,0.25l-0.955,2.149c-0.614,1.379-1.228,2.758-1.838,4.139c-0.227,0.511-0.456,1.021-0.685,1.53     c-0.615,1.372-1.252,2.792-1.816,4.197c-0.1,0.251-0.406,1.018,0.501,1.89c0.383,0.367,0.838,0.562,1.314,0.562     c0.764,0,1.464-0.501,1.827-1.309c1.698-3.777,3.382-7.559,5.066-11.341l1.137-2.556c0.586-1.313,0.36-2.107-0.831-2.925     l-7.276-4.991c-0.115-0.08-0.229-0.164-0.349-0.254l-0.174-0.129c-0.528-0.389-0.67-1.118-0.322-1.675l5.757-9.222     c0.241-0.386,0.674-0.609,1.125-0.588c0.452,0.022,0.858,0.288,1.062,0.694l0.113,0.225c0.071,0.141,0.13,0.256,0.183,0.375     l0.536,1.19c0.47,1.04,0.94,2.081,1.394,3.127c0.301,0.692,0.701,1.007,1.385,1.089c1.632,0.196,3.263,0.396,4.896,0.597     l4.024,0.492c0.886,0.105,1.592-0.352,1.692-1.103c0.058-0.429-0.029-0.81-0.25-1.097c-0.234-0.304-0.609-0.497-1.083-0.557     c-2.367-0.3-4.734-0.599-7.105-0.865c-0.822-0.091-1.386-0.507-1.724-1.27c-0.504-1.144-1.014-2.283-1.523-3.421     c-0.534-1.193-1.067-2.386-1.595-3.583c-0.214-0.486-0.484-0.805-0.903-1.065c-0.658-0.409-1.298-0.844-1.938-1.28     c-0.584-0.398-1.168-0.797-1.767-1.172c-0.519-0.325-0.985-0.537-1.39-0.631c-1.453-0.338-2.911-0.652-4.369-0.967     c-1.323-0.286-2.646-0.571-3.966-0.874c-0.723-0.167-1.257-0.069-1.858,0.345c-1.636,1.125-3.284,2.233-4.933,3.34l-2.485,1.67     c-0.35,0.233-0.679,0.454-0.969,0.692c-0.493,0.405-0.617,1.117-0.294,1.693c0.401,0.717,1.317,0.915,2.052,0.428     c2.158-1.433,4.457-2.965,6.738-4.558C26.238,14.705,26.87,14.491,27.542,14.491z"/>
            </g>
        </g>
        <g>
            <g>
                <path d="M19.334,46.938c0,0-0.014,0-0.016,0l-3.508-0.001h-4.727l-3.931-0.004c-1.364-0.002-2.592-0.503-3.458-1.411     c-0.818-0.857-1.239-2.008-1.184-3.238c0.094-2.121,1.757-3.871,3.868-4.069c0.365-0.035,0.734-0.053,1.103-0.053l4.88-0.003     c1.674,0,3.348,0.001,5.021,0.007c0.614-0.875,1.234-1.731,1.862-2.599l0.733-1.013c0.252-0.352,0.654-0.549,1.099-0.519     c0.432,0.028,0.817,0.276,1.021,0.657c0.75,1.397,1.985,2.345,3.292,3.348c0.291,0.224,0.582,0.448,0.87,0.677     c0.477,0.381,0.61,1.05,0.316,1.585c-0.095,0.183-0.152,0.285-0.218,0.383l-2.667,3.945     C22.673,46.14,21.167,46.938,19.334,46.938z M15.811,44.43l3.514,0.001l0.01,1.254v-1.254c1.015,0,1.718-0.37,2.278-1.201     l2.193-3.244c-0.981-0.754-1.983-1.528-2.835-2.53c-0.548,0.759-1.089,1.51-1.62,2.27c-0.437,0.629-1.055,0.948-1.834,0.948l0,0     c-1.726-0.006-3.44-0.008-5.155-0.008l-4.878,0.003c-0.29,0-0.58,0.014-0.867,0.042c-0.86,0.08-1.562,0.82-1.601,1.685     c-0.024,0.55,0.147,1.032,0.494,1.396c0.39,0.408,0.976,0.634,1.649,0.635l3.926,0.004H15.811z"/>
            </g>
        </g>
        <g>
            <g>
                <path d="M44.456,13.784c-1.668,0-3.25-0.657-4.453-1.851c-1.214-1.203-1.882-2.794-1.88-4.48     c0.002-3.517,2.764-6.318,6.288-6.377c0.006,0,0.095-0.001,0.102-0.001c3.425,0,6.322,2.904,6.33,6.342     c0.008,3.484-2.836,6.34-6.339,6.367C44.501,13.784,44.459,13.784,44.456,13.784z M44.513,3.582     c-2.238,0.037-3.881,1.702-3.883,3.873c-0.001,1.012,0.403,1.97,1.138,2.698c0.731,0.725,1.687,1.125,2.688,1.125v1.253     l0.028-1.253c2.093-0.016,3.855-1.781,3.851-3.855C48.331,5.34,46.581,3.582,44.513,3.582z"/>
            </g>
        </g>
    </g>
</svg>